<svg xmlns="http://www.w3.org/2000/svg" xmlns:xlink="http://www.w3.org/1999/xlink" width="600" zoomAndPan="magnify" viewBox="0 0 450 135.000003" height="180" preserveAspectRatio="xMidYMid meet" version="1.0"><defs><g/></defs><path fill="#000000" d="M 216.890625 8.449219 L 441.960938 8.449219 L 441.960938 125.558594 L 216.890625 125.558594 L 216.890625 8.449219 " fill-opacity="1" fill-rule="nonzero"/><g fill="#ffffff" fill-opacity="1"><g transform="translate(224.230355, 103.048083)"><g><path d="M 32.75 -73.40625 L 42.296875 -73.40625 C 43.273438 -73.40625 43.765625 -72.914062 43.765625 -71.9375 L 43.765625 -1.46875 C 43.765625 -0.488281 43.273438 0 42.296875 0 L 33.21875 0 C 32.351562 0 31.800781 -0.394531 31.5625 -1.1875 L 17.53125 -40.375 L 17.0625 -40.375 L 17.0625 -1.46875 C 17.0625 -0.488281 16.570312 0 15.59375 0 L 6.0625 0 C 5.082031 0 4.59375 -0.488281 4.59375 -1.46875 L 4.59375 -71.9375 C 4.59375 -72.914062 5.082031 -73.40625 6.0625 -73.40625 L 15.140625 -73.40625 C 15.992188 -73.40625 16.546875 -73.003906 16.796875 -72.203125 L 30.734375 -33.21875 L 31.28125 -33.21875 L 31.28125 -71.9375 C 31.28125 -72.914062 31.769531 -73.40625 32.75 -73.40625 Z M 32.75 -73.40625 "/></g></g></g><g fill="#ffffff" fill-opacity="1"><g transform="translate(272.58226, 103.048083)"><g><path d="M 41.203125 -62.75 L 41.203125 -53.578125 C 41.203125 -52.535156 40.710938 -52.015625 39.734375 -52.015625 L 17.0625 -52.015625 L 17.0625 -37.890625 L 34.3125 -37.890625 C 35.289062 -37.890625 35.78125 -37.367188 35.78125 -36.328125 L 35.78125 -27.25 C 35.78125 -26.207031 35.289062 -25.6875 34.3125 -25.6875 L 17.0625 -25.6875 L 17.0625 -12.109375 L 39.734375 -12.109375 C 40.710938 -12.109375 41.203125 -11.617188 41.203125 -10.640625 L 41.203125 -1.46875 C 41.203125 -0.488281 40.710938 0 39.734375 0 L 5.96875 0 C 5.050781 0 4.59375 -0.488281 4.59375 -1.46875 L 4.59375 -62.75 C 4.59375 -63.726562 5.050781 -64.21875 5.96875 -64.21875 L 39.734375 -64.21875 C 40.710938 -64.21875 41.203125 -63.726562 41.203125 -62.75 Z M 41.203125 -62.75 "/></g></g><g transform="translate(318.365194, 103.048083)"><g><path d="M 56.515625 -64.21875 L 65.140625 -64.21875 C 66.484375 -64.21875 67.066406 -63.578125 66.890625 -62.296875 L 58.078125 -1.65625 C 57.890625 -0.550781 57.21875 0 56.0625 0 L 46.15625 0 C 45.113281 0 44.4375 -0.550781 44.125 -1.65625 L 35.6875 -39.265625 L 27.15625 -1.65625 C 26.914062 -0.550781 26.242188 0 25.140625 0 L 15.046875 0 C 13.878906 0 13.207031 -0.582031 13.03125 -1.75 L 4.59375 -62.296875 C 4.40625 -63.578125 4.984375 -64.21875 6.328125 -64.21875 L 14.953125 -64.21875 C 16.054688 -64.21875 16.695312 -63.640625 16.875 -62.484375 L 21.375 -24.125 L 21.84375 -24.125 L 30.828125 -62.671875 C 31.128906 -63.703125 31.800781 -64.21875 32.84375 -64.21875 L 38.4375 -64.21875 C 39.476562 -64.21875 40.15625 -63.703125 40.46875 -62.671875 L 49.453125 -24.125 L 49.90625 -24.125 L 54.59375 -62.484375 C 54.769531 -63.640625 55.410156 -64.21875 56.515625 -64.21875 Z M 56.515625 -64.21875 "/></g></g><g transform="translate(388.736957, 103.048083)"><g><path d="M 17.796875 -64.21875 L 28.078125 -64.21875 C 32.421875 -64.21875 35.707031 -63.101562 37.9375 -60.875 C 40.164062 -58.644531 41.28125 -55.359375 41.28125 -51.015625 L 41.28125 -44.953125 C 41.28125 -43.972656 40.789062 -43.484375 39.8125 -43.484375 L 30.546875 -43.484375 C 29.566406 -43.484375 29.078125 -43.972656 29.078125 -44.953125 L 29.078125 -48.8125 C 29.078125 -51.257812 27.859375 -52.484375 25.421875 -52.484375 L 20.375 -52.484375 C 17.925781 -52.484375 16.703125 -51.257812 16.703125 -48.8125 L 16.703125 -41.015625 L 38.90625 -33.859375 C 40.488281 -33.304688 41.28125 -32.175781 41.28125 -30.46875 L 41.28125 -13.21875 C 41.28125 -8.9375 40.164062 -5.660156 37.9375 -3.390625 C 35.707031 -1.128906 32.421875 0 28.078125 0 L 17.796875 0 C 13.515625 0 10.242188 -1.128906 7.984375 -3.390625 C 5.722656 -5.660156 4.59375 -8.9375 4.59375 -13.21875 L 4.59375 -19.171875 C 4.59375 -20.148438 5.082031 -20.640625 6.0625 -20.640625 L 15.328125 -20.640625 C 16.304688 -20.640625 16.796875 -20.148438 16.796875 -19.171875 L 16.796875 -15.328125 C 16.796875 -12.878906 18.015625 -11.65625 20.453125 -11.65625 L 25.421875 -11.65625 C 27.859375 -11.65625 29.078125 -12.878906 29.078125 -15.328125 L 29.078125 -24.59375 L 7.0625 -31.75 C 5.414062 -32.300781 4.59375 -33.429688 4.59375 -35.140625 L 4.59375 -51.015625 C 4.59375 -55.359375 5.722656 -58.644531 7.984375 -60.875 C 10.242188 -63.101562 13.515625 -64.21875 17.796875 -64.21875 Z M 17.796875 -64.21875 "/></g></g></g><path fill="#004aad" d="M 8.957031 8.449219 L 208.339844 8.449219 L 208.339844 125.558594 L 8.957031 125.558594 L 8.957031 8.449219 " fill-opacity="1" fill-rule="nonzero"/><g fill="#ffffff" fill-opacity="1"><g transform="translate(16.296728, 103.048083)"><g><path d="M 41.375 -60.1875 L 41.375 -43.3125 C 41.375 -41.59375 40.820312 -40.148438 39.71875 -38.984375 C 38.625 -37.828125 37.25 -37.097656 35.59375 -36.796875 L 35.59375 -36.609375 C 37.25 -36.359375 38.625 -35.632812 39.71875 -34.4375 C 40.820312 -33.25 41.375 -31.800781 41.375 -30.09375 L 41.375 -13.21875 C 41.375 -8.9375 40.242188 -5.660156 37.984375 -3.390625 C 35.722656 -1.128906 32.421875 0 28.078125 0 L 6.0625 0 C 5.082031 0 4.59375 -0.488281 4.59375 -1.46875 L 4.59375 -71.9375 C 4.59375 -72.914062 5.082031 -73.40625 6.0625 -73.40625 L 28.078125 -73.40625 C 32.421875 -73.40625 35.722656 -72.285156 37.984375 -70.046875 C 40.242188 -67.816406 41.375 -64.53125 41.375 -60.1875 Z M 29.171875 -46.328125 L 29.171875 -57.625 C 29.171875 -60.0625 27.945312 -61.28125 25.5 -61.28125 L 17.15625 -61.28125 L 17.15625 -42.75 L 25.5 -42.75 C 27.945312 -42.75 29.171875 -43.941406 29.171875 -46.328125 Z M 29.171875 -15.78125 L 29.171875 -26.96875 C 29.171875 -29.414062 27.945312 -30.640625 25.5 -30.640625 L 17.15625 -30.640625 L 17.15625 -12.109375 L 25.5 -12.109375 C 27.945312 -12.109375 29.171875 -13.332031 29.171875 -15.78125 Z M 29.171875 -15.78125 "/></g></g></g><g fill="#ffffff" fill-opacity="1"><g transform="translate(62.26316, 103.048083)"><g><path d="M 41.375 -60.1875 L 41.375 -43.3125 C 41.375 -41.59375 40.820312 -40.148438 39.71875 -38.984375 C 38.625 -37.828125 37.25 -37.097656 35.59375 -36.796875 L 35.59375 -36.609375 C 37.25 -36.359375 38.625 -35.632812 39.71875 -34.4375 C 40.820312 -33.25 41.375 -31.800781 41.375 -30.09375 L 41.375 -13.21875 C 41.375 -8.9375 40.242188 -5.660156 37.984375 -3.390625 C 35.722656 -1.128906 32.421875 0 28.078125 0 L 6.0625 0 C 5.082031 0 4.59375 -0.488281 4.59375 -1.46875 L 4.59375 -71.9375 C 4.59375 -72.914062 5.082031 -73.40625 6.0625 -73.40625 L 28.078125 -73.40625 C 32.421875 -73.40625 35.722656 -72.285156 37.984375 -70.046875 C 40.242188 -67.816406 41.375 -64.53125 41.375 -60.1875 Z M 29.171875 -46.328125 L 29.171875 -57.625 C 29.171875 -60.0625 27.945312 -61.28125 25.5 -61.28125 L 17.15625 -61.28125 L 17.15625 -42.75 L 25.5 -42.75 C 27.945312 -42.75 29.171875 -43.941406 29.171875 -46.328125 Z M 29.171875 -15.78125 L 29.171875 -26.96875 C 29.171875 -29.414062 27.945312 -30.640625 25.5 -30.640625 L 17.15625 -30.640625 L 17.15625 -12.109375 L 25.5 -12.109375 C 27.945312 -12.109375 29.171875 -13.332031 29.171875 -15.78125 Z M 29.171875 -15.78125 "/></g></g></g><g fill="#ffffff" fill-opacity="1"><g transform="translate(108.229593, 103.048083)"><g><path d="M 17.796875 -73.40625 L 28.078125 -73.40625 C 32.421875 -73.40625 35.707031 -72.285156 37.9375 -70.046875 C 40.164062 -67.816406 41.28125 -64.53125 41.28125 -60.1875 L 41.28125 -50.46875 C 41.28125 -49.488281 40.789062 -49 39.8125 -49 L 30.28125 -49 C 29.300781 -49 28.8125 -49.488281 28.8125 -50.46875 L 28.8125 -57.625 C 28.8125 -60.0625 27.585938 -61.28125 25.140625 -61.28125 L 20.734375 -61.28125 C 18.285156 -61.28125 17.0625 -60.0625 17.0625 -57.625 L 17.0625 -44.953125 L 38.90625 -37.796875 C 40.488281 -37.128906 41.28125 -36 41.28125 -34.40625 L 41.28125 -13.21875 C 41.28125 -8.9375 40.164062 -5.660156 37.9375 -3.390625 C 35.707031 -1.128906 32.421875 0 28.078125 0 L 17.796875 0 C 13.515625 0 10.242188 -1.128906 7.984375 -3.390625 C 5.722656 -5.660156 4.59375 -8.9375 4.59375 -13.21875 L 4.59375 -22.84375 C 4.59375 -23.820312 5.082031 -24.3125 6.0625 -24.3125 L 15.59375 -24.3125 C 16.570312 -24.3125 17.0625 -23.820312 17.0625 -22.84375 L 17.0625 -15.78125 C 17.0625 -13.332031 18.285156 -12.109375 20.734375 -12.109375 L 25.140625 -12.109375 C 27.585938 -12.109375 28.8125 -13.332031 28.8125 -15.78125 L 28.8125 -27.984375 L 7.0625 -35.140625 C 5.414062 -35.691406 4.59375 -36.820312 4.59375 -38.53125 L 4.59375 -60.1875 C 4.59375 -64.53125 5.722656 -67.816406 7.984375 -70.046875 C 10.242188 -72.285156 13.515625 -73.40625 17.796875 -73.40625 Z M 17.796875 -73.40625 "/></g></g><g transform="translate(154.104276, 103.048083)"><g><path d="M 42.296875 -60.1875 L 42.296875 -37.796875 C 42.296875 -31.679688 40.0625 -27.644531 35.59375 -25.6875 L 41.9375 -1.65625 C 42.238281 -0.550781 41.804688 0 40.640625 0 L 31.109375 0 C 30.242188 0 29.722656 -0.425781 29.546875 -1.28125 L 23.390625 -24.59375 L 17.0625 -24.59375 L 17.0625 -1.46875 C 17.0625 -0.488281 16.570312 0 15.59375 0 L 6.0625 0 C 5.082031 0 4.59375 -0.488281 4.59375 -1.46875 L 4.59375 -71.9375 C 4.59375 -72.914062 5.082031 -73.40625 6.0625 -73.40625 L 29.078125 -73.40625 C 33.421875 -73.40625 36.707031 -72.285156 38.9375 -70.046875 C 41.175781 -67.816406 42.296875 -64.53125 42.296875 -60.1875 Z M 17.0625 -36.703125 L 26.15625 -36.703125 C 28.59375 -36.703125 29.8125 -37.925781 29.8125 -40.375 L 29.8125 -57.625 C 29.8125 -60.0625 28.59375 -61.28125 26.15625 -61.28125 L 17.0625 -61.28125 Z M 17.0625 -36.703125 "/></g></g></g></svg>