<svg xmlns="http://www.w3.org/2000/svg" xmlns:xlink="http://www.w3.org/1999/xlink" width="600" zoomAndPan="magnify" viewBox="0 0 450 135.000003" height="180" preserveAspectRatio="xMidYMid meet" version="1.0"><defs><g/><clipPath id="8bd5ece80b"><path d="M 131.554688 21.832031 L 247.972656 21.832031 L 247.972656 110.851562 L 131.554688 110.851562 Z M 131.554688 21.832031 " clip-rule="nonzero"/></clipPath><clipPath id="070d7d7be4"><path d="M 9.964844 21.832031 L 128.058594 21.832031 L 128.058594 110.851562 L 9.964844 110.851562 Z M 9.964844 21.832031 " clip-rule="nonzero"/></clipPath></defs><g clip-path="url(#8bd5ece80b)"><path fill="#004aad" d="M 131.554688 21.832031 L 248.046875 21.832031 L 248.046875 110.851562 L 131.554688 110.851562 Z M 131.554688 21.832031 " fill-opacity="1" fill-rule="nonzero"/></g><g fill="#ffffff" fill-opacity="1"><g transform="translate(198.947739, 102.088524)"><g><path d="M 4.46875 -1.4375 L 4.46875 -61.1875 C 4.46875 -62.144531 4.945312 -62.625 5.90625 -62.625 L 27.375 -62.625 C 31.601562 -62.625 34.804688 -61.535156 36.984375 -59.359375 C 39.160156 -57.179688 40.25 -53.972656 40.25 -49.734375 L 40.25 -32.203125 C 40.25 -28.023438 39.160156 -24.847656 36.984375 -22.671875 C 34.804688 -20.492188 31.601562 -19.378906 27.375 -19.328125 L 16.109375 -19.234375 L 16.109375 -1.34375 C 16.109375 -0.382812 15.628906 0.09375 14.671875 0.09375 L 5.90625 0 C 4.945312 0 4.46875 -0.476562 4.46875 -1.4375 Z M 16.109375 -30.765625 L 25.046875 -30.859375 C 27.429688 -30.859375 28.625 -32.050781 28.625 -34.4375 L 28.625 -47.5 C 28.625 -49.882812 27.429688 -51.078125 25.046875 -51.078125 L 16.109375 -50.984375 Z M 16.109375 -30.765625 "/></g></g></g><g clip-path="url(#070d7d7be4)"><path fill="#000000" d="M 9.964844 21.832031 L 128.191406 21.832031 L 128.191406 110.851562 L 9.964844 110.851562 Z M 9.964844 21.832031 " fill-opacity="1" fill-rule="nonzero"/></g><g fill="#000000" fill-opacity="1"><g transform="translate(251.115748, 88.55737)"><g><path d="M 53.140625 -20.140625 L 53.140625 -48.625 C 53.140625 -51.238281 52.457031 -53.101562 51.09375 -54.21875 C 49.726562 -55.332031 47.539062 -55.890625 44.53125 -55.890625 L 44.53125 -57.390625 L 63.25 -57.390625 L 63.25 -55.890625 C 60.789062 -55.890625 58.976562 -55.21875 57.8125 -53.875 C 56.644531 -52.539062 56.0625 -50.789062 56.0625 -48.625 L 56.0625 0.828125 L 54.640625 0.828125 L 12.28125 -46.953125 L 12.28125 -8.4375 C 12.28125 -5.820312 12.972656 -4.007812 14.359375 -3 C 15.753906 -2 17.898438 -1.5 20.796875 -1.5 L 21.390625 -1.5 L 21.390625 0 L 1.25 0 L 1.25 -1.5 C 6.65625 -1.5 9.359375 -3.726562 9.359375 -8.1875 L 9.359375 -50.296875 C 9.023438 -50.628906 8.34375 -51.363281 7.3125 -52.5 C 6.28125 -53.644531 5.289062 -54.484375 4.34375 -55.015625 C 3.394531 -55.546875 2.363281 -55.835938 1.25 -55.890625 L 1.25 -57.390625 L 20.296875 -57.390625 Z M 53.140625 -20.140625 "/></g></g></g><g fill="#000000" fill-opacity="1"><g transform="translate(315.534115, 88.55737)"><g><path d="M 19.390625 -39.6875 C 22.785156 -39.6875 25.632812 -38.820312 27.9375 -37.09375 C 30.25 -35.363281 31.988281 -33.148438 33.15625 -30.453125 C 34.332031 -27.753906 34.945312 -24.957031 35 -22.0625 L 35 -20.640625 L 13.03125 -20.640625 C 13.363281 -16.015625 14.570312 -12.28125 16.65625 -9.4375 C 18.75 -6.601562 21.359375 -5.1875 24.484375 -5.1875 C 26.484375 -5.1875 28.191406 -5.726562 29.609375 -6.8125 C 31.035156 -7.894531 32.332031 -9.46875 33.5 -11.53125 L 35 -10.609375 C 33.113281 -6.597656 30.859375 -3.628906 28.234375 -1.703125 C 25.617188 0.210938 22.53125 1.171875 18.96875 1.171875 C 15.40625 1.171875 12.351562 0.296875 9.8125 -1.453125 C 7.28125 -3.210938 5.34375 -5.59375 4 -8.59375 C 2.664062 -11.601562 2 -14.976562 2 -18.71875 C 2 -22.445312 2.78125 -25.910156 4.34375 -29.109375 C 5.90625 -32.316406 8.019531 -34.878906 10.6875 -36.796875 C 13.363281 -38.722656 16.265625 -39.6875 19.390625 -39.6875 Z M 24.8125 -25.484375 C 24.8125 -29.429688 24.378906 -32.351562 23.515625 -34.25 C 22.648438 -36.144531 21.273438 -37.09375 19.390625 -37.09375 C 17.378906 -37.09375 15.816406 -35.851562 14.703125 -33.375 C 13.585938 -30.894531 13.03125 -28.039062 13.03125 -24.8125 L 13.03125 -23.390625 L 24.8125 -23.390625 Z M 24.8125 -25.484375 "/></g></g></g><g fill="#000000" fill-opacity="1"><g transform="translate(352.12976, 88.55737)"><g><path d="M 19.125 -37.265625 C 17.957031 -37.203125 17.132812 -37.003906 16.65625 -36.671875 C 16.1875 -36.335938 15.953125 -35.835938 15.953125 -35.171875 C 15.953125 -34.554688 16.117188 -33.773438 16.453125 -32.828125 L 21.71875 -17.046875 L 21.890625 -17.046875 L 26.65625 -31.15625 C 26.488281 -31.601562 26.191406 -32.46875 25.765625 -33.75 C 25.347656 -35.03125 24.847656 -35.90625 24.265625 -36.375 C 23.679688 -36.851562 22.863281 -37.148438 21.8125 -37.265625 L 21.8125 -38.765625 L 40.859375 -38.765625 L 40.859375 -37.265625 C 39.628906 -37.148438 38.75 -36.910156 38.21875 -36.546875 C 37.6875 -36.191406 37.421875 -35.675781 37.421875 -35 C 37.421875 -34.394531 37.617188 -33.503906 38.015625 -32.328125 L 42.78125 -17.46875 L 42.9375 -17.46875 L 47.125 -30 C 47.625 -31.5 47.875 -32.664062 47.875 -33.5 C 47.875 -35.34375 46.925781 -36.597656 45.03125 -37.265625 L 45.03125 -38.765625 L 54.0625 -38.765625 L 54.0625 -37.265625 C 53.28125 -36.703125 52.550781 -35.863281 51.875 -34.75 C 51.207031 -33.632812 50.316406 -31.410156 49.203125 -28.078125 L 39.4375 1 L 37.34375 1 L 28.078125 -27.0625 L 27.90625 -27.0625 L 18.546875 1 L 16.375 1 L 5.09375 -31.671875 C 4.425781 -33.722656 3.867188 -35.109375 3.421875 -35.828125 C 2.972656 -36.554688 2.363281 -37.035156 1.59375 -37.265625 L 1.59375 -38.765625 L 19.125 -38.765625 Z M 19.125 -37.265625 "/></g></g></g><g fill="#000000" fill-opacity="1"><g transform="translate(407.858747, 88.55737)"><g><path d="M 13.875 -39.6875 C 15.257812 -39.6875 16.46875 -39.546875 17.5 -39.265625 C 18.53125 -38.984375 19.769531 -38.566406 21.21875 -38.015625 C 22.332031 -37.515625 23.113281 -37.265625 23.5625 -37.265625 C 24.226562 -37.265625 24.796875 -37.457031 25.265625 -37.84375 C 25.742188 -38.238281 26.257812 -38.851562 26.8125 -39.6875 L 27.734375 -39.6875 L 28.40625 -26.5625 L 27.40625 -26.5625 C 26.175781 -29.738281 24.40625 -32.234375 22.09375 -34.046875 C 19.78125 -35.859375 17.257812 -36.765625 14.53125 -36.765625 C 12.914062 -36.765625 11.648438 -36.382812 10.734375 -35.625 C 9.816406 -34.875 9.359375 -33.914062 9.359375 -32.75 C 9.359375 -31.300781 10.039062 -30.078125 11.40625 -29.078125 C 12.769531 -28.078125 14.84375 -26.9375 17.625 -25.65625 C 20.414062 -24.375 22.671875 -23.175781 24.390625 -22.0625 C 26.117188 -20.945312 27.609375 -19.507812 28.859375 -17.75 C 30.117188 -16 30.75 -13.867188 30.75 -11.359375 C 30.75 -9.023438 30.160156 -6.894531 28.984375 -4.96875 C 27.816406 -3.050781 26.203125 -1.546875 24.140625 -0.453125 C 22.078125 0.628906 19.796875 1.171875 17.296875 1.171875 C 15.734375 1.171875 14.320312 1.003906 13.0625 0.671875 C 11.8125 0.335938 10.519531 -0.109375 9.1875 -0.671875 C 9.019531 -0.722656 8.601562 -0.875 7.9375 -1.125 C 7.269531 -1.375 6.710938 -1.5 6.265625 -1.5 C 5.265625 -1.5 4.398438 -0.632812 3.671875 1.09375 L 2.921875 1.09375 L 2 -12.703125 L 2.921875 -12.703125 C 4.367188 -9.191406 6.257812 -6.488281 8.59375 -4.59375 C 10.9375 -2.695312 13.503906 -1.75 16.296875 -1.75 C 18.015625 -1.75 19.445312 -2.222656 20.59375 -3.171875 C 21.738281 -4.117188 22.3125 -5.289062 22.3125 -6.6875 C 22.3125 -8.070312 21.878906 -9.164062 21.015625 -9.96875 C 20.148438 -10.78125 18.796875 -11.691406 16.953125 -12.703125 C 16.179688 -13.148438 15.457031 -13.523438 14.78125 -13.828125 C 14.113281 -14.128906 13.554688 -14.394531 13.109375 -14.625 C 10.554688 -15.84375 8.523438 -16.941406 7.015625 -17.921875 C 5.515625 -18.898438 4.21875 -20.195312 3.125 -21.8125 C 2.039062 -23.425781 1.5 -25.429688 1.5 -27.828125 C 1.5 -31.222656 2.65625 -34.046875 4.96875 -36.296875 C 7.28125 -38.554688 10.25 -39.6875 13.875 -39.6875 Z M 13.875 -39.6875 "/></g></g></g><g fill="#ffffff" fill-opacity="1"><g transform="translate(133.021917, 95.523866)"><g><path d="M 69.59375 0 L 45.625 0 L 34.265625 -19.140625 L 33.90625 -19.140625 L 22.546875 0 L 0.359375 0 L 22.359375 -32.5625 L 2.5 -61.546875 L 26.390625 -61.546875 L 35.6875 -45.796875 L 36.046875 -45.796875 L 45.4375 -61.546875 L 67.53125 -61.546875 L 47.59375 -32.46875 Z M 69.59375 0 "/></g></g></g><g fill="#ffffff" fill-opacity="1"><g transform="translate(75.888968, 102.088524)"><g><path d="M 4.46875 -12.875 L 4.46875 -49.734375 C 4.46875 -53.972656 5.570312 -57.179688 7.78125 -59.359375 C 9.988281 -61.535156 13.179688 -62.625 17.359375 -62.625 L 27.375 -62.625 C 31.550781 -62.625 34.738281 -61.535156 36.9375 -59.359375 C 39.144531 -57.179688 40.25 -53.972656 40.25 -49.734375 L 40.25 -43.109375 C 40.25 -42.160156 39.773438 -41.6875 38.828125 -41.6875 L 30.421875 -41.6875 C 29.460938 -41.6875 28.984375 -42.160156 28.984375 -43.109375 L 28.984375 -47.5 C 28.984375 -49.882812 27.789062 -51.078125 25.40625 -51.078125 L 19.6875 -51.078125 C 17.300781 -51.078125 16.109375 -49.882812 16.109375 -47.5 L 16.109375 -15.125 C 16.109375 -12.738281 17.300781 -11.546875 19.6875 -11.546875 L 25.40625 -11.546875 C 27.789062 -11.546875 28.984375 -12.738281 28.984375 -15.125 L 28.984375 -22.90625 L 24.328125 -22.90625 C 23.378906 -22.90625 22.90625 -23.378906 22.90625 -24.328125 L 22.90625 -33.28125 C 22.90625 -34.226562 23.378906 -34.703125 24.328125 -34.703125 L 38.828125 -34.703125 C 39.773438 -34.703125 40.25 -34.226562 40.25 -33.28125 L 40.25 -12.875 C 40.25 -8.707031 39.144531 -5.519531 36.9375 -3.3125 C 34.738281 -1.101562 31.550781 0 27.375 0 L 17.359375 0 C 13.179688 0 9.988281 -1.101562 7.78125 -3.3125 C 5.570312 -5.519531 4.46875 -8.707031 4.46875 -12.875 Z M 4.46875 -12.875 "/></g></g></g><g fill="#ffffff" fill-opacity="1"><g transform="translate(9.96316, 95.523866)"><g><path d="M 33.28125 -61.546875 C 54.800781 -61.546875 65.5625 -51.285156 65.5625 -30.765625 C 65.5625 -10.253906 54.800781 0 33.28125 0 L 6.625 0 L 6.625 -61.546875 Z M 26.390625 -14.765625 L 32.921875 -14.765625 C 41.210938 -14.765625 45.359375 -19.207031 45.359375 -28.09375 L 45.359375 -33.453125 C 45.359375 -42.335938 41.210938 -46.78125 32.921875 -46.78125 L 26.390625 -46.78125 Z M 26.390625 -14.765625 "/></g></g></g></svg>