<svg xmlns="http://www.w3.org/2000/svg" xmlns:xlink="http://www.w3.org/1999/xlink" width="600" zoomAndPan="magnify" viewBox="0 0 450 135.000003" height="180" preserveAspectRatio="xMidYMid meet" version="1.0"><defs><g/></defs><g fill="#004aad" fill-opacity="1"><g transform="translate(84.565639, 53.694931)"><g><path d="M 1.890625 0 L 1.890625 -3.578125 L 4.3125 -3.578125 C 4.988281 -3.578125 5.617188 -3.695312 6.203125 -3.9375 C 6.796875 -4.1875 7.269531 -4.59375 7.625 -5.15625 C 7.988281 -5.71875 8.171875 -6.5 8.171875 -7.5 L 8.171875 -40.5 C 8.171875 -41.582031 7.988281 -42.414062 7.625 -43 C 7.269531 -43.582031 6.796875 -44 6.203125 -44.25 C 5.617188 -44.5 4.988281 -44.625 4.3125 -44.625 L 1.890625 -44.625 L 1.890625 -48.1875 L 25.25 -48.1875 L 25.25 -44.625 L 22.6875 -44.625 C 21.957031 -44.625 21.300781 -44.5 20.71875 -44.25 C 20.132812 -44 19.6875 -43.582031 19.375 -43 C 19.0625 -42.414062 18.90625 -41.5625 18.90625 -40.4375 L 18.90625 -7.5625 C 18.90625 -6.613281 19.070312 -5.832031 19.40625 -5.21875 C 19.738281 -4.613281 20.195312 -4.1875 20.78125 -3.9375 C 21.375 -3.695312 22.007812 -3.578125 22.6875 -3.578125 L 25.25 -3.578125 L 25.25 0 Z M 1.890625 0 "/></g></g></g><g fill="#000000" fill-opacity="1"><g transform="translate(111.634658, 53.694931)"><g><path d="M 6.40625 -27.546875 L 6.40625 -31.046875 C 7.71875 -31.546875 8.8125 -32.03125 9.6875 -32.5 C 10.5625 -32.96875 11.222656 -33.503906 11.671875 -34.109375 C 12.128906 -34.722656 12.359375 -35.457031 12.359375 -36.3125 C 12.359375 -36.945312 12.109375 -37.429688 11.609375 -37.765625 C 11.117188 -38.097656 10.546875 -38.457031 9.890625 -38.84375 C 9.234375 -39.226562 8.65625 -39.769531 8.15625 -40.46875 C 7.664062 -41.164062 7.421875 -42.1875 7.421875 -43.53125 C 7.421875 -45.0625 7.878906 -46.21875 8.796875 -47 C 9.722656 -47.789062 10.882812 -48.1875 12.28125 -48.1875 C 14.175781 -48.1875 15.6875 -47.523438 16.8125 -46.203125 C 17.9375 -44.878906 18.5 -43.066406 18.5 -40.765625 C 18.5 -37.890625 17.570312 -35.257812 15.71875 -32.875 C 13.875 -30.488281 10.769531 -28.710938 6.40625 -27.546875 Z M 6.40625 -27.546875 "/></g></g></g><g fill="#000000" fill-opacity="1"><g transform="translate(135.594415, 53.694931)"><g><path d="M 1.34375 0 L 1.34375 -3.578125 L 1.890625 -3.578125 C 2.921875 -3.578125 3.785156 -3.675781 4.484375 -3.875 C 5.179688 -4.082031 5.734375 -4.519531 6.140625 -5.1875 C 6.546875 -5.863281 6.75 -6.878906 6.75 -8.234375 L 6.75 -28.421875 C 6.75 -29.679688 6.546875 -30.625 6.140625 -31.25 C 5.734375 -31.882812 5.171875 -32.300781 4.453125 -32.5 C 3.734375 -32.707031 2.878906 -32.8125 1.890625 -32.8125 L 1.6875 -32.8125 L 1.6875 -36.1875 L 15.859375 -36.1875 L 16.734375 -31.390625 L 17.078125 -31.390625 C 18.160156 -33.273438 19.519531 -34.691406 21.15625 -35.640625 C 22.800781 -36.585938 25.019531 -37.0625 27.8125 -37.0625 C 29.425781 -37.0625 30.863281 -36.859375 32.125 -36.453125 C 33.382812 -36.046875 34.488281 -35.4375 35.4375 -34.625 C 36.382812 -33.8125 37.101562 -32.734375 37.59375 -31.390625 L 38 -31.390625 C 39.039062 -33.273438 40.445312 -34.691406 42.21875 -35.640625 C 44 -36.585938 46.171875 -37.0625 48.734375 -37.0625 C 52.335938 -37.0625 55.128906 -36.035156 57.109375 -33.984375 C 59.085938 -31.941406 60.078125 -28.625 60.078125 -24.03125 L 60.078125 -8.375 C 60.078125 -6.976562 60.242188 -5.941406 60.578125 -5.265625 C 60.921875 -4.585938 61.425781 -4.132812 62.09375 -3.90625 C 62.769531 -3.6875 63.601562 -3.578125 64.59375 -3.578125 L 64.875 -3.578125 L 64.875 0 L 49.8125 0 L 49.8125 -22.203125 C 49.8125 -25.085938 49.40625 -27.328125 48.59375 -28.921875 C 47.789062 -30.515625 46.398438 -31.3125 44.421875 -31.3125 C 43.023438 -31.3125 41.894531 -30.875 41.03125 -30 C 40.175781 -29.125 39.546875 -27.953125 39.140625 -26.484375 C 38.742188 -25.023438 38.546875 -23.421875 38.546875 -21.671875 L 38.546875 -8.375 C 38.546875 -6.976562 38.710938 -5.941406 39.046875 -5.265625 C 39.390625 -4.585938 39.894531 -4.132812 40.5625 -3.90625 C 41.238281 -3.6875 42.070312 -3.578125 43.0625 -3.578125 L 43.265625 -3.578125 L 43.265625 0 L 28.28125 0 L 28.28125 -22.203125 C 28.28125 -25.085938 27.894531 -27.328125 27.125 -28.921875 C 26.363281 -30.515625 24.992188 -31.3125 23.015625 -31.3125 C 21.535156 -31.3125 20.351562 -30.828125 19.46875 -29.859375 C 18.59375 -28.898438 17.960938 -27.617188 17.578125 -26.015625 C 17.203125 -24.421875 17.015625 -22.703125 17.015625 -20.859375 L 17.015625 -7.96875 C 17.015625 -6.707031 17.210938 -5.769531 17.609375 -5.15625 C 18.015625 -4.550781 18.578125 -4.132812 19.296875 -3.90625 C 20.023438 -3.6875 20.882812 -3.578125 21.875 -3.578125 L 22.078125 -3.578125 L 22.078125 0 Z M 1.34375 0 "/></g></g></g><g fill="#004aad" fill-opacity="1"><g transform="translate(202.147782, 53.694931)"><g><path d="M 1.890625 0 L 1.890625 -3.578125 L 4.3125 -3.578125 C 5.125 -3.578125 5.820312 -3.710938 6.40625 -3.984375 C 7 -4.253906 7.441406 -4.703125 7.734375 -5.328125 C 8.023438 -5.960938 8.171875 -6.773438 8.171875 -7.765625 L 8.171875 -40.5625 C 8.171875 -41.6875 7.976562 -42.53125 7.59375 -43.09375 C 7.207031 -43.65625 6.710938 -44.050781 6.109375 -44.28125 C 5.503906 -44.507812 4.863281 -44.625 4.1875 -44.625 L 1.890625 -44.625 L 1.890625 -48.1875 L 22.34375 -48.1875 C 28.78125 -48.1875 33.640625 -47.265625 36.921875 -45.421875 C 40.203125 -43.578125 41.84375 -40.539062 41.84375 -36.3125 C 41.84375 -34.289062 41.414062 -32.570312 40.5625 -31.15625 C 39.707031 -29.738281 38.570312 -28.585938 37.15625 -27.703125 C 35.738281 -26.828125 34.175781 -26.144531 32.46875 -25.65625 L 32.46875 -25.3125 C 34.71875 -24.945312 36.6875 -24.257812 38.375 -23.25 C 40.0625 -22.238281 41.390625 -20.910156 42.359375 -19.265625 C 43.328125 -17.628906 43.8125 -15.617188 43.8125 -13.234375 C 43.8125 -8.816406 42.210938 -5.503906 39.015625 -3.296875 C 35.816406 -1.097656 30.9375 0 24.375 0 Z M 23.625 -4.125 C 26.632812 -4.125 28.859375 -4.816406 30.296875 -6.203125 C 31.742188 -7.597656 32.46875 -10.007812 32.46875 -13.4375 C 32.46875 -15.632812 32.175781 -17.453125 31.59375 -18.890625 C 31.007812 -20.335938 30.070312 -21.410156 28.78125 -22.109375 C 27.5 -22.804688 25.828125 -23.15625 23.765625 -23.15625 L 18.828125 -23.15625 L 18.828125 -4.125 Z M 21.875 -27.265625 C 23.988281 -27.265625 25.6875 -27.554688 26.96875 -28.140625 C 28.25 -28.734375 29.179688 -29.660156 29.765625 -30.921875 C 30.347656 -32.179688 30.640625 -33.84375 30.640625 -35.90625 C 30.640625 -39.007812 29.921875 -41.144531 28.484375 -42.3125 C 27.046875 -43.488281 24.796875 -44.078125 21.734375 -44.078125 L 18.828125 -44.078125 L 18.828125 -27.265625 Z M 21.875 -27.265625 "/></g></g></g><g fill="#000000" fill-opacity="1"><g transform="translate(248.852605, 53.694931)"><g><path d="M 17.8125 0.671875 C 13.90625 0.671875 11.039062 -0.40625 9.21875 -2.5625 C 7.394531 -4.726562 6.484375 -8.101562 6.484375 -12.6875 L 6.484375 -27.8125 C 6.484375 -29.113281 6.335938 -30.113281 6.046875 -30.8125 C 5.753906 -31.507812 5.28125 -31.984375 4.625 -32.234375 C 3.96875 -32.484375 3.078125 -32.609375 1.953125 -32.609375 L 1.75 -32.609375 L 1.75 -36.1875 L 16.734375 -36.1875 L 16.734375 -14.578125 C 16.734375 -12.691406 16.890625 -11.023438 17.203125 -9.578125 C 17.523438 -8.140625 18.054688 -7.023438 18.796875 -6.234375 C 19.535156 -5.453125 20.5625 -5.0625 21.875 -5.0625 C 23.3125 -5.0625 24.488281 -5.476562 25.40625 -6.3125 C 26.332031 -7.144531 27 -8.335938 27.40625 -9.890625 C 27.8125 -11.441406 28.015625 -13.253906 28.015625 -15.328125 L 28.015625 -28.28125 C 28.015625 -29.582031 27.820312 -30.535156 27.4375 -31.140625 C 27.050781 -31.753906 26.53125 -32.148438 25.875 -32.328125 C 25.226562 -32.515625 24.457031 -32.609375 23.5625 -32.609375 L 23.359375 -32.609375 L 23.359375 -36.1875 L 38.265625 -36.1875 L 38.265625 -7.828125 C 38.265625 -6.566406 38.457031 -5.617188 38.84375 -4.984375 C 39.226562 -4.359375 39.769531 -3.96875 40.46875 -3.8125 C 41.164062 -3.65625 41.941406 -3.578125 42.796875 -3.578125 L 43.328125 -3.578125 L 43.328125 0 L 29.90625 0 L 28.421875 -4.796875 L 28.078125 -4.796875 C 26.910156 -2.859375 25.484375 -1.460938 23.796875 -0.609375 C 22.109375 0.242188 20.113281 0.671875 17.8125 0.671875 Z M 17.8125 0.671875 "/></g></g></g><g fill="#000000" fill-opacity="1"><g transform="translate(293.869949, 53.694931)"><g><path d="M 15.453125 0.671875 C 12.304688 0.671875 9.765625 0.347656 7.828125 -0.296875 C 5.890625 -0.953125 4.472656 -1.851562 3.578125 -3 C 2.679688 -4.144531 2.234375 -5.484375 2.234375 -7.015625 C 2.234375 -8.273438 2.523438 -9.273438 3.109375 -10.015625 C 3.691406 -10.765625 4.429688 -11.285156 5.328125 -11.578125 C 6.234375 -11.867188 7.179688 -12.015625 8.171875 -12.015625 C 8.171875 -9.222656 8.8125 -7.09375 10.09375 -5.625 C 11.375 -4.164062 13.253906 -3.4375 15.734375 -3.4375 C 18.023438 -3.4375 19.6875 -3.894531 20.71875 -4.8125 C 21.757812 -5.738281 22.28125 -6.878906 22.28125 -8.234375 C 22.28125 -9.222656 22.007812 -10.039062 21.46875 -10.6875 C 20.925781 -11.34375 20.054688 -11.960938 18.859375 -12.546875 C 17.671875 -13.140625 16.085938 -13.769531 14.109375 -14.4375 C 11.546875 -15.34375 9.421875 -16.289062 7.734375 -17.28125 C 6.046875 -18.269531 4.785156 -19.472656 3.953125 -20.890625 C 3.117188 -22.304688 2.703125 -24.09375 2.703125 -26.25 C 2.703125 -29.851562 4.03125 -32.539062 6.6875 -34.3125 C 9.34375 -36.09375 12.851562 -36.984375 17.21875 -36.984375 C 19.914062 -36.984375 22.117188 -36.679688 23.828125 -36.078125 C 25.535156 -35.472656 26.78125 -34.675781 27.5625 -33.6875 C 28.351562 -32.695312 28.75 -31.660156 28.75 -30.578125 C 28.75 -29.140625 28.234375 -28.023438 27.203125 -27.234375 C 26.171875 -26.453125 24.597656 -26.0625 22.484375 -26.0625 C 22.484375 -28.257812 21.90625 -29.960938 20.75 -31.171875 C 19.601562 -32.390625 18.085938 -33 16.203125 -33 C 14.441406 -33 13.085938 -32.628906 12.140625 -31.890625 C 11.203125 -31.148438 10.734375 -30.128906 10.734375 -28.828125 C 10.734375 -27.335938 11.316406 -26.1875 12.484375 -25.375 C 13.660156 -24.570312 15.800781 -23.628906 18.90625 -22.546875 C 21.332031 -21.734375 23.390625 -20.84375 25.078125 -19.875 C 26.765625 -18.90625 28.046875 -17.722656 28.921875 -16.328125 C 29.796875 -14.941406 30.234375 -13.164062 30.234375 -11 C 30.234375 -7.351562 28.953125 -4.492188 26.390625 -2.421875 C 23.828125 -0.359375 20.179688 0.671875 15.453125 0.671875 Z M 15.453125 0.671875 "/></g></g></g><g fill="#000000" fill-opacity="1"><g transform="translate(326.333727, 53.694931)"><g><path d="M 1.828125 11.546875 C 4.160156 11.546875 6.160156 11.265625 7.828125 10.703125 C 9.492188 10.140625 10.890625 9.347656 12.015625 8.328125 C 13.140625 7.316406 14.070312 6.132812 14.8125 4.78125 C 15.5625 3.4375 16.203125 1.957031 16.734375 0.34375 L 4.59375 -29.359375 C 4.226562 -30.304688 3.851562 -31.003906 3.46875 -31.453125 C 3.09375 -31.898438 2.65625 -32.203125 2.15625 -32.359375 C 1.664062 -32.523438 1.035156 -32.609375 0.265625 -32.609375 L 0 -32.609375 L 0 -36.1875 L 19.4375 -36.1875 L 19.4375 -32.609375 L 19.171875 -32.609375 C 17.773438 -32.609375 16.757812 -32.390625 16.125 -31.953125 C 15.5 -31.523438 15.1875 -30.863281 15.1875 -29.96875 C 15.1875 -29.5625 15.242188 -29.117188 15.359375 -28.640625 C 15.472656 -28.171875 15.617188 -27.691406 15.796875 -27.203125 L 19.984375 -16 C 20.335938 -15.09375 20.660156 -14.132812 20.953125 -13.125 C 21.242188 -12.113281 21.503906 -11.171875 21.734375 -10.296875 C 21.960938 -9.421875 22.117188 -8.644531 22.203125 -7.96875 C 22.429688 -9.09375 22.703125 -10.160156 23.015625 -11.171875 C 23.328125 -12.179688 23.617188 -13.113281 23.890625 -13.96875 L 28.140625 -26.59375 C 28.328125 -27.039062 28.488281 -27.601562 28.625 -28.28125 C 28.757812 -28.957031 28.828125 -29.5 28.828125 -29.90625 C 28.828125 -30.894531 28.5 -31.578125 27.84375 -31.953125 C 27.1875 -32.335938 26.1875 -32.554688 24.84375 -32.609375 L 24.5 -32.609375 L 24.5 -36.1875 L 39.078125 -36.1875 L 39.078125 -32.609375 L 38.8125 -32.609375 C 38 -32.554688 37.289062 -32.382812 36.6875 -32.09375 C 36.082031 -31.800781 35.550781 -31.296875 35.09375 -30.578125 C 34.644531 -29.859375 34.175781 -28.890625 33.6875 -27.671875 L 23.484375 0 C 22.359375 3.101562 21.265625 5.65625 20.203125 7.65625 C 19.148438 9.664062 17.925781 11.234375 16.53125 12.359375 C 15.132812 13.484375 13.359375 14.28125 11.203125 14.75 C 9.046875 15.21875 6.300781 15.453125 2.96875 15.453125 L 1.828125 15.453125 Z M 1.828125 11.546875 "/></g></g></g><g fill="#004aad" fill-opacity="1"><g transform="translate(54.039126, 113.943508)"><g><path d="M 1.890625 0 L 1.890625 -3.578125 L 3.984375 -3.578125 C 4.742188 -3.578125 5.4375 -3.6875 6.0625 -3.90625 C 6.695312 -4.132812 7.203125 -4.53125 7.578125 -5.09375 C 7.960938 -5.65625 8.15625 -6.429688 8.15625 -7.421875 L 8.15625 -40.8125 C 8.15625 -41.75 7.972656 -42.5 7.609375 -43.0625 C 7.253906 -43.625 6.785156 -44.019531 6.203125 -44.25 C 5.617188 -44.476562 4.945312 -44.59375 4.1875 -44.59375 L 1.890625 -44.59375 L 1.890625 -48.15625 L 24.421875 -48.15625 L 24.421875 -44.59375 L 22.734375 -44.59375 C 22.015625 -44.59375 21.363281 -44.46875 20.78125 -44.21875 C 20.195312 -43.96875 19.734375 -43.570312 19.390625 -43.03125 C 19.054688 -42.488281 18.890625 -41.703125 18.890625 -40.671875 L 18.890625 -23.203125 L 29.953125 -35.6875 C 30.941406 -36.757812 31.71875 -37.703125 32.28125 -38.515625 C 32.84375 -39.328125 33.269531 -40.066406 33.5625 -40.734375 C 33.851562 -41.410156 34 -42.039062 34 -42.625 C 34 -43.394531 33.707031 -43.925781 33.125 -44.21875 C 32.539062 -44.507812 31.550781 -44.65625 30.15625 -44.65625 L 30.15625 -48.15625 L 48.296875 -48.15625 L 48.296875 -44.65625 C 47.078125 -44.65625 45.925781 -44.40625 44.84375 -43.90625 C 43.769531 -43.414062 42.726562 -42.71875 41.71875 -41.8125 C 40.707031 -40.914062 39.660156 -39.882812 38.578125 -38.71875 L 29.28125 -28.796875 L 42.90625 -9.3125 C 43.84375 -7.914062 44.703125 -6.800781 45.484375 -5.96875 C 46.273438 -5.132812 47.0625 -4.523438 47.84375 -4.140625 C 48.632812 -3.765625 49.503906 -3.578125 50.453125 -3.578125 L 50.71875 -3.578125 L 50.71875 0 L 46.671875 0 C 44.296875 0 42.332031 -0.117188 40.78125 -0.359375 C 39.226562 -0.609375 37.910156 -1.023438 36.828125 -1.609375 C 35.742188 -2.203125 34.765625 -2.976562 33.890625 -3.9375 C 33.015625 -4.90625 32.101562 -6.15625 31.15625 -7.6875 L 22.125 -21.453125 L 18.890625 -18.546875 L 18.890625 -7.484375 C 18.890625 -6.492188 19.078125 -5.71875 19.453125 -5.15625 C 19.835938 -4.59375 20.351562 -4.1875 21 -3.9375 C 21.65625 -3.695312 22.367188 -3.578125 23.140625 -3.578125 L 24.421875 -3.578125 L 24.421875 0 Z M 1.890625 0 "/></g></g></g><g fill="#000000" fill-opacity="1"><g transform="translate(104.431473, 113.943508)"><g><path d="M 20.640625 0.671875 C 14.878906 0.671875 10.523438 -0.957031 7.578125 -4.21875 C 4.640625 -7.476562 3.171875 -12.03125 3.171875 -17.875 C 3.171875 -24.21875 4.628906 -28.992188 7.546875 -32.203125 C 10.472656 -35.421875 14.59375 -37.03125 19.90625 -37.03125 C 24.800781 -37.03125 28.65625 -35.65625 31.46875 -32.90625 C 34.28125 -30.164062 35.6875 -26.125 35.6875 -20.78125 L 35.6875 -17.328125 L 13.5625 -17.328125 C 13.644531 -12.835938 14.484375 -9.554688 16.078125 -7.484375 C 17.679688 -5.421875 19.988281 -4.390625 23 -4.390625 C 25.289062 -4.390625 27.175781 -4.925781 28.65625 -6 C 30.144531 -7.082031 31.273438 -8.410156 32.046875 -9.984375 C 32.671875 -9.804688 33.207031 -9.457031 33.65625 -8.9375 C 34.101562 -8.414062 34.328125 -7.773438 34.328125 -7.015625 C 34.328125 -5.847656 33.851562 -4.664062 32.90625 -3.46875 C 31.96875 -2.28125 30.5 -1.289062 28.5 -0.5 C 26.5 0.28125 23.878906 0.671875 20.640625 0.671875 Z M 25.359375 -21.65625 C 25.359375 -25.070312 24.953125 -27.753906 24.140625 -29.703125 C 23.335938 -31.660156 21.96875 -32.640625 20.03125 -32.640625 C 18.144531 -32.640625 16.640625 -31.695312 15.515625 -29.8125 C 14.390625 -27.925781 13.78125 -25.207031 13.6875 -21.65625 Z M 25.359375 -21.65625 "/></g></g></g><g fill="#000000" fill-opacity="1"><g transform="translate(143.010444, 113.943508)"><g><path d="M 20.640625 0.671875 C 14.878906 0.671875 10.523438 -0.957031 7.578125 -4.21875 C 4.640625 -7.476562 3.171875 -12.03125 3.171875 -17.875 C 3.171875 -24.21875 4.628906 -28.992188 7.546875 -32.203125 C 10.472656 -35.421875 14.59375 -37.03125 19.90625 -37.03125 C 24.800781 -37.03125 28.65625 -35.65625 31.46875 -32.90625 C 34.28125 -30.164062 35.6875 -26.125 35.6875 -20.78125 L 35.6875 -17.328125 L 13.5625 -17.328125 C 13.644531 -12.835938 14.484375 -9.554688 16.078125 -7.484375 C 17.679688 -5.421875 19.988281 -4.390625 23 -4.390625 C 25.289062 -4.390625 27.175781 -4.925781 28.65625 -6 C 30.144531 -7.082031 31.273438 -8.410156 32.046875 -9.984375 C 32.671875 -9.804688 33.207031 -9.457031 33.65625 -8.9375 C 34.101562 -8.414062 34.328125 -7.773438 34.328125 -7.015625 C 34.328125 -5.847656 33.851562 -4.664062 32.90625 -3.46875 C 31.96875 -2.28125 30.5 -1.289062 28.5 -0.5 C 26.5 0.28125 23.878906 0.671875 20.640625 0.671875 Z M 25.359375 -21.65625 C 25.359375 -25.070312 24.953125 -27.753906 24.140625 -29.703125 C 23.335938 -31.660156 21.96875 -32.640625 20.03125 -32.640625 C 18.144531 -32.640625 16.640625 -31.695312 15.515625 -29.8125 C 14.390625 -27.925781 13.78125 -25.207031 13.6875 -21.65625 Z M 25.359375 -21.65625 "/></g></g></g><g fill="#000000" fill-opacity="1"><g transform="translate(181.589415, 113.943508)"><g><path d="M 0.875 15.453125 L 0.875 11.875 L 1.6875 11.875 C 2.363281 11.875 3.070312 11.769531 3.8125 11.5625 C 4.550781 11.363281 5.175781 10.945312 5.6875 10.3125 C 6.207031 9.6875 6.46875 8.742188 6.46875 7.484375 L 6.46875 -27.859375 C 6.46875 -29.253906 6.273438 -30.273438 5.890625 -30.921875 C 5.515625 -31.578125 4.988281 -32.015625 4.3125 -32.234375 C 3.644531 -32.460938 2.882812 -32.578125 2.03125 -32.578125 L 1.484375 -32.578125 L 1.484375 -36.15625 L 14.703125 -36.15625 L 15.921875 -30.890625 L 16.1875 -30.890625 C 17.175781 -32.648438 18.488281 -34.078125 20.125 -35.171875 C 21.769531 -36.273438 23.898438 -36.828125 26.515625 -36.828125 C 31.003906 -36.828125 34.429688 -35.304688 36.796875 -32.265625 C 39.160156 -29.234375 40.34375 -24.457031 40.34375 -17.9375 C 40.34375 -11.414062 39.160156 -6.660156 36.796875 -3.671875 C 34.429688 -0.679688 30.976562 0.8125 26.4375 0.8125 C 24.050781 0.8125 22.101562 0.382812 20.59375 -0.46875 C 19.09375 -1.320312 17.847656 -2.46875 16.859375 -3.90625 L 16.453125 -3.90625 C 16.546875 -2.738281 16.613281 -1.476562 16.65625 -0.125 C 16.707031 1.21875 16.734375 2.453125 16.734375 3.578125 L 16.734375 7.484375 C 16.734375 8.742188 17 9.6875 17.53125 10.3125 C 18.070312 10.945312 18.710938 11.363281 19.453125 11.5625 C 20.203125 11.769531 20.890625 11.875 21.515625 11.875 L 23 11.875 L 23 15.453125 Z M 23.609375 -4.1875 C 25.859375 -4.1875 27.476562 -5.320312 28.46875 -7.59375 C 29.457031 -9.863281 29.953125 -13.289062 29.953125 -17.875 C 29.953125 -22.375 29.46875 -25.8125 28.5 -28.1875 C 27.53125 -30.570312 25.921875 -31.765625 23.671875 -31.765625 C 21.921875 -31.765625 20.523438 -31.234375 19.484375 -30.171875 C 18.453125 -29.117188 17.734375 -27.554688 17.328125 -25.484375 C 16.929688 -23.421875 16.734375 -20.90625 16.734375 -17.9375 C 16.734375 -14.882812 16.929688 -12.332031 17.328125 -10.28125 C 17.734375 -8.238281 18.441406 -6.710938 19.453125 -5.703125 C 20.472656 -4.691406 21.859375 -4.1875 23.609375 -4.1875 Z M 23.609375 -4.1875 "/></g></g></g><g fill="#004aad" fill-opacity="1"><g transform="translate(225.096255, 113.943508)"><g><path d="M 1.890625 0 L 1.890625 -3.578125 L 3.78125 -3.578125 C 4.5 -3.578125 5.191406 -3.664062 5.859375 -3.84375 C 6.535156 -4.019531 7.085938 -4.398438 7.515625 -4.984375 C 7.941406 -5.578125 8.15625 -6.457031 8.15625 -7.625 L 8.15625 -40.46875 C 8.15625 -41.6875 7.929688 -42.585938 7.484375 -43.171875 C 7.035156 -43.753906 6.472656 -44.132812 5.796875 -44.3125 C 5.128906 -44.5 4.457031 -44.59375 3.78125 -44.59375 L 1.890625 -44.59375 L 1.890625 -48.15625 L 23.671875 -48.15625 C 28.210938 -48.15625 31.878906 -47.648438 34.671875 -46.640625 C 37.460938 -45.628906 39.5 -44.164062 40.78125 -42.25 C 42.0625 -40.34375 42.703125 -38.019531 42.703125 -35.28125 C 42.703125 -32.800781 42.238281 -30.726562 41.3125 -29.0625 C 40.394531 -27.40625 39.203125 -26.101562 37.734375 -25.15625 C 36.273438 -24.21875 34.691406 -23.476562 32.984375 -22.9375 L 41.34375 -9.234375 C 42.519531 -7.304688 43.585938 -5.878906 44.546875 -4.953125 C 45.515625 -4.035156 46.609375 -3.578125 47.828125 -3.578125 L 48.234375 -3.578125 L 48.234375 0 L 46 0 C 43.300781 0 41.03125 -0.15625 39.1875 -0.46875 C 37.34375 -0.78125 35.789062 -1.375 34.53125 -2.25 C 33.269531 -3.132812 32.171875 -4.410156 31.234375 -6.078125 L 23.265625 -20.90625 L 18.890625 -20.90625 L 18.890625 -7.625 C 18.890625 -6.457031 19.066406 -5.578125 19.421875 -4.984375 C 19.785156 -4.398438 20.289062 -4.019531 20.9375 -3.84375 C 21.59375 -3.664062 22.328125 -3.578125 23.140625 -3.578125 L 24.421875 -3.578125 L 24.421875 0 Z M 22.59375 -24.828125 C 25.832031 -24.828125 28.101562 -25.65625 29.40625 -27.3125 C 30.707031 -28.976562 31.359375 -31.453125 31.359375 -34.734375 C 31.359375 -37.023438 31.046875 -38.859375 30.421875 -40.234375 C 29.796875 -41.609375 28.828125 -42.609375 27.515625 -43.234375 C 26.210938 -43.867188 24.53125 -44.1875 22.46875 -44.1875 L 18.890625 -44.1875 L 18.890625 -24.828125 Z M 22.59375 -24.828125 "/></g></g></g><g fill="#000000" fill-opacity="1"><g transform="translate(273.127184, 113.943508)"><g><path d="M 20.640625 0.671875 C 14.878906 0.671875 10.523438 -0.957031 7.578125 -4.21875 C 4.640625 -7.476562 3.171875 -12.03125 3.171875 -17.875 C 3.171875 -24.21875 4.628906 -28.992188 7.546875 -32.203125 C 10.472656 -35.421875 14.59375 -37.03125 19.90625 -37.03125 C 24.800781 -37.03125 28.65625 -35.65625 31.46875 -32.90625 C 34.28125 -30.164062 35.6875 -26.125 35.6875 -20.78125 L 35.6875 -17.328125 L 13.5625 -17.328125 C 13.644531 -12.835938 14.484375 -9.554688 16.078125 -7.484375 C 17.679688 -5.421875 19.988281 -4.390625 23 -4.390625 C 25.289062 -4.390625 27.175781 -4.925781 28.65625 -6 C 30.144531 -7.082031 31.273438 -8.410156 32.046875 -9.984375 C 32.671875 -9.804688 33.207031 -9.457031 33.65625 -8.9375 C 34.101562 -8.414062 34.328125 -7.773438 34.328125 -7.015625 C 34.328125 -5.847656 33.851562 -4.664062 32.90625 -3.46875 C 31.96875 -2.28125 30.5 -1.289062 28.5 -0.5 C 26.5 0.28125 23.878906 0.671875 20.640625 0.671875 Z M 25.359375 -21.65625 C 25.359375 -25.070312 24.953125 -27.753906 24.140625 -29.703125 C 23.335938 -31.660156 21.96875 -32.640625 20.03125 -32.640625 C 18.144531 -32.640625 16.640625 -31.695312 15.515625 -29.8125 C 14.390625 -27.925781 13.78125 -25.207031 13.6875 -21.65625 Z M 25.359375 -21.65625 "/></g></g></g><g fill="#000000" fill-opacity="1"><g transform="translate(311.706156, 113.943508)"><g><path d="M 13.625 0.671875 C 11.644531 0.671875 9.859375 0.269531 8.265625 -0.53125 C 6.671875 -1.34375 5.398438 -2.554688 4.453125 -4.171875 C 3.503906 -5.796875 3.03125 -7.847656 3.03125 -10.328125 C 3.03125 -14.003906 4.273438 -16.707031 6.765625 -18.4375 C 9.265625 -20.175781 13.054688 -21.132812 18.140625 -21.3125 L 23.671875 -21.515625 L 23.671875 -25.234375 C 23.671875 -26.890625 23.535156 -28.28125 23.265625 -29.40625 C 22.992188 -30.53125 22.519531 -31.394531 21.84375 -32 C 21.175781 -32.613281 20.234375 -32.921875 19.015625 -32.921875 C 17.847656 -32.921875 16.925781 -32.625 16.25 -32.03125 C 15.582031 -31.445312 15.101562 -30.613281 14.8125 -29.53125 C 14.519531 -28.457031 14.375 -27.15625 14.375 -25.625 C 11.539062 -25.625 9.414062 -25.972656 8 -26.671875 C 6.582031 -27.367188 5.875 -28.53125 5.875 -30.15625 C 5.875 -31.8125 6.5 -33.144531 7.75 -34.15625 C 9.007812 -35.175781 10.695312 -35.910156 12.8125 -36.359375 C 14.925781 -36.804688 17.242188 -37.03125 19.765625 -37.03125 C 24.484375 -37.03125 28.019531 -36.175781 30.375 -34.46875 C 32.738281 -32.757812 33.921875 -29.789062 33.921875 -25.5625 L 33.921875 -8.359375 C 33.921875 -7.097656 34.054688 -6.128906 34.328125 -5.453125 C 34.597656 -4.785156 35.023438 -4.304688 35.609375 -4.015625 C 36.191406 -3.722656 36.976562 -3.578125 37.96875 -3.578125 L 38.25 -3.578125 L 38.25 0 L 25.703125 0 L 24.28125 -4.65625 L 23.671875 -4.65625 C 22.679688 -3.4375 21.75 -2.429688 20.875 -1.640625 C 20 -0.859375 19 -0.28125 17.875 0.09375 C 16.75 0.476562 15.332031 0.671875 13.625 0.671875 Z M 17.328125 -4.25 C 18.640625 -4.25 19.765625 -4.609375 20.703125 -5.328125 C 21.648438 -6.046875 22.378906 -7.046875 22.890625 -8.328125 C 23.410156 -9.609375 23.671875 -11.128906 23.671875 -12.890625 L 23.671875 -17.9375 L 20.640625 -17.734375 C 18.835938 -17.648438 17.421875 -17.300781 16.390625 -16.6875 C 15.359375 -16.082031 14.613281 -15.226562 14.15625 -14.125 C 13.707031 -13.03125 13.484375 -11.671875 13.484375 -10.046875 C 13.484375 -8.785156 13.628906 -7.71875 13.921875 -6.84375 C 14.222656 -5.96875 14.648438 -5.316406 15.203125 -4.890625 C 15.765625 -4.460938 16.472656 -4.25 17.328125 -4.25 Z M 17.328125 -4.25 "/></g></g></g><g fill="#000000" fill-opacity="1"><g transform="translate(352.173616, 113.943508)"><g><path d="M 16.859375 0.671875 C 13.890625 0.671875 11.378906 0.0195312 9.328125 -1.28125 C 7.285156 -2.582031 5.738281 -4.613281 4.6875 -7.375 C 3.632812 -10.144531 3.109375 -13.691406 3.109375 -18.015625 C 3.109375 -22.367188 3.632812 -25.941406 4.6875 -28.734375 C 5.738281 -31.523438 7.285156 -33.59375 9.328125 -34.9375 C 11.378906 -36.289062 13.847656 -36.96875 16.734375 -36.96875 C 19.242188 -36.96875 21.273438 -36.484375 22.828125 -35.515625 C 24.378906 -34.546875 25.628906 -33.320312 26.578125 -31.84375 L 26.90625 -31.84375 C 26.863281 -32.914062 26.820312 -34.140625 26.78125 -35.515625 C 26.738281 -36.890625 26.71875 -38.179688 26.71875 -39.390625 L 26.71875 -43.5 C 26.71875 -44.71875 26.457031 -45.628906 25.9375 -46.234375 C 25.414062 -46.847656 24.75 -47.242188 23.9375 -47.421875 C 23.132812 -47.597656 22.238281 -47.6875 21.25 -47.6875 L 20.703125 -47.6875 L 20.703125 -51.265625 L 36.96875 -51.265625 L 36.96875 -8.703125 C 36.96875 -7.347656 37.179688 -6.300781 37.609375 -5.5625 C 38.035156 -4.820312 38.628906 -4.304688 39.390625 -4.015625 C 40.160156 -3.722656 41.082031 -3.578125 42.15625 -3.578125 L 42.703125 -3.578125 L 42.703125 0 L 29.28125 0 L 27.59375 -5.265625 L 27.25 -5.265625 C 26.257812 -3.421875 24.941406 -1.96875 23.296875 -0.90625 C 21.660156 0.144531 19.515625 0.671875 16.859375 0.671875 Z M 19.765625 -4.390625 C 22.421875 -4.390625 24.242188 -5.507812 25.234375 -7.75 C 26.222656 -10 26.71875 -13.460938 26.71875 -18.140625 C 26.71875 -22.597656 26.222656 -26.015625 25.234375 -28.390625 C 24.242188 -30.773438 22.421875 -31.96875 19.765625 -31.96875 C 18.273438 -31.96875 17.066406 -31.425781 16.140625 -30.34375 C 15.222656 -29.269531 14.550781 -27.695312 14.125 -25.625 C 13.695312 -23.5625 13.484375 -21.046875 13.484375 -18.078125 C 13.484375 -13.492188 13.96875 -10.066406 14.9375 -7.796875 C 15.90625 -5.523438 17.515625 -4.390625 19.765625 -4.390625 Z M 19.765625 -4.390625 "/></g></g></g></svg>